<svg
  xmlns="http://www.w3.org/2000/svg"
  version="1.1"
  viewBox="-5.0 -10.0 110.0 135.0"
  fill="white"
  width="50"
  height="50"
>
 <path d="m29.25 58.75c2.9805 6.3867 8.1133 11.52 14.5 14.5l3.75 1.75-3.75 1.75c-6.3867 2.9805-11.52 8.1133-14.5 14.5l-1.75 3.75-1.75-3.75c-2.9805-6.3867-8.1133-11.52-14.5-14.5l-3.75-1.75 3.75-1.75c6.3867-2.9805 11.52-8.1133 14.5-14.5l1.75-3.75zm-1.75 8.7305c-2.1211 2.8633-4.6562 5.3984-7.5195 7.5195 2.8633 2.1211 5.3984 4.6562 7.5195 7.5195 2.1211-2.8633 4.6562-5.3984 7.5195-7.5195-2.8633-2.1211-5.3984-4.6562-7.5195-7.5195z" fill-rule="evenodd"/>
 <path d="m70.844 32.16c2.9766 6.3867 8.1094 11.52 14.496 14.496l7.1602 3.3438-7.1602 3.3438c-6.3398 3.0391-11.516 8.1016-14.496 14.496l-3.3438 7.1602-3.3438-7.1602c-2.9805-6.3945-8.1562-11.457-14.496-14.496l-7.1602-3.3438 7.1602-3.3438c6.3867-2.9766 11.52-8.1094 14.496-14.496l3.3438-7.1602zm-3.3438 6.3906c-2.8984 4.6367-6.8125 8.5508-11.449 11.449 4.6367 2.8984 8.5508 6.8125 11.449 11.449 2.8984-4.6367 6.8125-8.5508 11.449-11.449-4.6367-2.8984-8.5508-6.8125-11.449-11.449z" fill-rule="evenodd"/>
 <path d="m29.25 8.75c2.9805 6.3867 8.1133 11.52 14.5 14.5l3.75 1.75-3.75 1.75c-6.3867 2.9805-11.52 8.1133-14.5 14.5l-1.75 3.75-1.75-3.75c-2.9805-6.3867-8.1133-11.52-14.5-14.5l-3.75-1.75 3.75-1.75c6.3867-2.9805 11.52-8.1133 14.5-14.5l1.75-3.75zm-1.75 8.7305c-2.1211 2.8633-4.6562 5.3984-7.5195 7.5195 2.8633 2.1211 5.3984 4.6562 7.5195 7.5195 2.1211-2.8633 4.6562-5.3984 7.5195-7.5195-2.8633-2.1211-5.3984-4.6562-7.5195-7.5195z" fill-rule="evenodd"/>
</svg>